<svg xmlns="http://www.w3.org/2000/svg" width="324.002" height="96" viewBox="0 0 324.002 96">
    <g data-name="그룹 1358" transform="translate(-18 -325)">
        <g data-name="그룹 1256">
            <g data-name="패스 1579" style="fill:#fff">
                <path d="M992.679 735.986h-318.97c-.706 0-1.28-.49-1.28-1.093v-4.352c0-.306.205-.582.534-.721 1.219-.52 2.251-1.331 2.987-2.349a6.028 6.028 0 0 0 1.169-3.548 6.01 6.01 0 0 0-1.169-3.54c-.736-1.017-1.769-1.828-2.985-2.346-.331-.14-.536-.416-.536-.722v-7.378c0-.306.207-.582.541-.72 2.522-1.07 4.149-3.381 4.149-5.889 0-2.508-1.627-4.82-4.145-5.886-.338-.14-.545-.416-.545-.722v-7.379c0-.306.205-.582.534-.721 1.218-.52 2.25-1.33 2.987-2.347a6.01 6.01 0 0 0 1.169-3.54 6.026 6.026 0 0 0-1.169-3.548c-.736-1.017-1.768-1.829-2.985-2.347-.331-.14-.536-.416-.536-.722v-24.752h323v24.752c0 .306-.207.582-.541.72h-.003l-.002.002c-1.217.518-2.25 1.33-2.985 2.347a6.026 6.026 0 0 0-1.169 3.548c0 1.26.404 2.485 1.169 3.54.736 1.017 1.769 1.828 2.985 2.346l.002.001.003.001c.334.138.541.414.541.72v7.37c0 .307-.212.593-.541.729-1.22.515-2.253 1.324-2.99 2.34a6.02 6.02 0 0 0-1.169 3.548 6.02 6.02 0 0 0 1.169 3.547c.737 1.017 1.77 1.826 2.986 2.34.333.138.545.424.545.731v7.369c0 .306-.207.582-.541.72h-.003l-.002.002c-1.216.518-2.249 1.33-2.985 2.346a6.009 6.009 0 0 0-1.169 3.54c0 1.265.404 2.492 1.169 3.548.736 1.018 1.768 1.83 2.985 2.348l.002.001.003.001c.334.138.541.414.541.72v3.035c0 1.329-1.234 2.41-2.75 2.41z" style="stroke:none" transform="translate(-653.927 -315.487)"/>
                <path d="M672.929 651.864v24.252c0 .1.09.202.232.262 1.3.554 2.405 1.423 3.194 2.514a6.523 6.523 0 0 1 1.264 3.841 6.506 6.506 0 0 1-1.264 3.834c-.79 1.09-1.894 1.958-3.198 2.513-.138.059-.228.161-.228.261v7.379c0 .098.091.2.232.258l.004.001.004.002c2.703 1.146 4.45 3.637 4.45 6.347 0 1.37-.436 2.698-1.262 3.84a7.559 7.559 0 0 1-3.187 2.508l-.005.001-.004.002c-.14.058-.232.16-.232.258v7.378c0 .1.09.202.232.262 1.3.554 2.404 1.423 3.194 2.513a6.506 6.506 0 0 1 1.264 3.833c0 1.37-.437 2.7-1.264 3.842-.789 1.09-1.894 1.96-3.198 2.516-.138.058-.228.16-.228.26v4.352c0 .321.357.593.78.593h318.97c1.24 0 2.25-.857 2.25-1.91v-3.035c0-.098-.091-.2-.232-.258l-.005-.002-.005-.002c-1.3-.554-2.405-1.423-3.194-2.514a6.525 6.525 0 0 1-1.264-3.842c0-1.366.437-2.692 1.264-3.833.79-1.09 1.894-1.96 3.194-2.513l.005-.002.005-.002c.14-.058.232-.16.232-.258v-7.369c0-.104-.091-.209-.232-.267l-.004-.001-.003-.002c-1.301-.55-2.407-1.417-3.197-2.507a6.517 6.517 0 0 1-1.264-3.841c0-1.371.437-2.7 1.264-3.84.79-1.091 1.896-1.958 3.197-2.507l.004-.002.003-.001c.139-.058.232-.165.232-.267v-7.37c0-.098-.091-.2-.232-.258l-.005-.002-.005-.002c-1.3-.554-2.404-1.423-3.194-2.512a6.506 6.506 0 0 1-1.264-3.834c0-1.37.437-2.699 1.264-3.841.789-1.09 1.893-1.96 3.194-2.514l.005-.002.005-.002c.141-.058.232-.16.232-.258v-24.252h-322m-1-1h324v25.252c0 .51-.33.967-.85 1.182-2.27.967-3.85 3.035-3.85 5.435 0 2.391 1.58 4.459 3.85 5.426.52.215.85.672.85 1.182v7.37c0 .51-.33.976-.85 1.191-2.27.958-3.85 3.026-3.85 5.426 0 2.4 1.58 4.468 3.85 5.427.52.215.85.68.85 1.191v7.369c0 .51-.33.967-.85 1.182-2.27.967-3.85 3.036-3.85 5.426 0 2.4 1.58 4.469 3.85 5.436.52.215.85.671.85 1.182v3.035c0 1.603-1.46 2.91-3.25 2.91h-318.97c-.99 0-1.78-.716-1.78-1.593v-4.352c0-.511.33-.967.84-1.182 2.27-.967 3.85-3.036 3.85-5.436 0-2.39-1.58-4.459-3.85-5.426-.51-.215-.84-.672-.84-1.182v-7.378c0-.511.33-.967.85-1.182 2.26-.959 3.84-3.027 3.84-5.427 0-2.4-1.58-4.468-3.84-5.426-.52-.215-.85-.672-.85-1.182v-7.379c0-.51.33-.967.84-1.182 2.27-.967 3.85-3.035 3.85-5.426 0-2.4-1.58-4.468-3.85-5.435-.51-.215-.84-.672-.84-1.182v-25.252z" style="stroke:none;fill:#bd5dc6" transform="translate(-653.927 -315.487)"/>
            </g>
            <path data-name="사각형 1468" d="M3.066 0h317.868A3.066 3.066 0 0 1 324 3.066V29.8H0V3.066A3.066 3.066 0 0 1 3.066 0z" transform="translate(18 325)" style="fill:#bd5dc6"/>
        </g>
        <text data-name="90일 이용권" transform="translate(142 346)" style="font-family:NotoSansKR-Medium,Noto Sans KR;font-weight:500;font-size:15px;fill:#fff"><tspan x="0" y="0">90일 이용권</tspan></text>
        <text data-name="이용요금 6600원" transform="translate(123 391)" style="font-size:16px;font-family:NotoSansKR-Medium,Noto Sans KR;font-weight:500"><tspan x="0" y="0">이용요금 6600원</tspan></text>
        <circle data-name="타원 534" cx="3" cy="3" r="3" transform="translate(110 384)"/>
    </g>
</svg>
